<svg width="45" height="45" viewBox="0 0 45 45" fill="none" xmlns="http://www.w3.org/2000/svg">
<path d="M35.625 7.5H33.75V5.625C33.75 4.59375 32.9062 3.75 31.875 3.75C30.8438 3.75 30 4.59375 30 5.625V7.5H15V5.625C15 4.59375 14.1562 3.75 13.125 3.75C12.0938 3.75 11.25 4.59375 11.25 5.625V7.5H9.375C7.29375 7.5 5.64375 9.1875 5.64375 11.25L5.625 37.5C5.625 38.4946 6.02009 39.4484 6.72335 40.1516C7.42661 40.8549 8.38044 41.25 9.375 41.25H35.625C37.6875 41.25 39.375 39.5625 39.375 37.5V11.25C39.375 9.1875 37.6875 7.5 35.625 7.5ZM35.625 35.625C35.625 36.6562 34.7812 37.5 33.75 37.5H11.25C10.2188 37.5 9.375 36.6562 9.375 35.625V16.875H35.625V35.625ZM13.125 20.625H16.875V24.375H13.125V20.625ZM20.625 20.625H24.375V24.375H20.625V20.625ZM28.125 20.625H31.875V24.375H28.125V20.625Z" fill="white"/>
</svg>
