<svg width="159" height="150" viewBox="0 0 159 150" fill="none" xmlns="http://www.w3.org/2000/svg">
<path d="M41.266 109.57C41.8854 109.776 42.4581 110.103 42.9512 110.531C43.4443 110.959 43.8483 111.48 44.1399 112.064C44.4315 112.648 44.6052 113.284 44.6509 113.936C44.6966 114.587 44.6134 115.241 44.4062 115.86L39.4375 130.767C39.2503 131.408 38.9357 132.005 38.5123 132.523C38.0889 133.04 37.5655 133.466 36.9735 133.777C36.3815 134.087 35.7329 134.274 35.0667 134.328C34.4005 134.382 33.7303 134.3 33.0962 134.089C32.4621 133.878 31.8772 133.541 31.3765 133.098C30.8757 132.655 30.4694 132.116 30.1819 131.513C29.8944 130.909 29.7316 130.254 29.7032 129.586C29.6748 128.919 29.7815 128.252 30.0167 127.626L34.9855 112.72C35.4007 111.47 36.2956 110.435 37.4734 109.844C38.6512 109.254 40.0154 109.155 41.266 109.57ZM71.0785 109.57C71.6979 109.776 72.2706 110.103 72.7637 110.531C73.2568 110.959 73.6608 111.48 73.9524 112.064C74.244 112.648 74.4177 113.284 74.4634 113.936C74.5091 114.587 74.4259 115.241 74.2187 115.86L64.2812 145.673C64.0941 146.314 63.7794 146.912 63.356 147.429C62.9327 147.946 62.4093 148.373 61.8173 148.683C61.2252 148.993 60.5767 149.181 59.9105 149.234C59.2443 149.288 58.5741 149.207 57.94 148.995C57.3059 148.784 56.721 148.447 56.2202 148.004C55.7195 147.561 55.3132 147.022 55.0257 146.419C54.7382 145.816 54.5753 145.16 54.547 144.493C54.5186 143.825 54.6252 143.158 54.8605 142.533L64.798 112.72C65.2132 111.47 66.1081 110.435 67.2859 109.844C68.4637 109.254 69.8279 109.155 71.0785 109.57ZM100.891 109.57C101.51 109.776 102.083 110.103 102.576 110.531C103.069 110.959 103.473 111.48 103.765 112.064C104.057 112.648 104.23 113.284 104.276 113.936C104.322 114.587 104.238 115.241 104.031 115.86L99.0625 130.767C98.8753 131.408 98.5607 132.005 98.1373 132.523C97.7139 133.04 97.1905 133.466 96.5985 133.777C96.0065 134.087 95.3579 134.274 94.6917 134.328C94.0255 134.382 93.3553 134.3 92.7212 134.089C92.0871 133.878 91.5022 133.541 91.0015 133.098C90.5007 132.655 90.0944 132.116 89.8069 131.513C89.5194 130.909 89.3566 130.254 89.3282 129.586C89.2998 128.919 89.4065 128.252 89.6417 127.626L94.6105 112.72C95.0257 111.47 95.9206 110.435 97.0984 109.844C98.2762 109.254 99.6404 109.155 100.891 109.57ZM130.703 109.57C131.323 109.776 131.896 110.103 132.389 110.531C132.882 110.959 133.286 111.48 133.577 112.064C133.869 112.648 134.043 113.284 134.088 113.936C134.134 114.587 134.051 115.241 133.844 115.86L123.906 145.673C123.719 146.314 123.404 146.912 122.981 147.429C122.558 147.946 122.034 148.373 121.442 148.683C120.85 148.993 120.202 149.181 119.535 149.234C118.869 149.288 118.199 149.207 117.565 148.995C116.931 148.784 116.346 148.447 115.845 148.004C115.344 147.561 114.938 147.022 114.651 146.419C114.363 145.816 114.2 145.16 114.172 144.493C114.144 143.825 114.25 143.158 114.485 142.533L124.423 112.72C124.838 111.47 125.733 110.435 126.911 109.844C128.089 109.254 129.453 109.155 130.703 109.57ZM133.158 40.0272C131.094 29.6243 125.757 20.1543 117.926 13.002C110.095 5.84968 100.181 1.39011 89.6342 0.275347C79.0873 -0.839413 68.4603 1.4491 59.3071 6.80628C50.1539 12.1635 42.9546 20.3083 38.7617 30.05C34.0597 29.5083 29.2965 29.932 24.764 31.2952C20.2314 32.6584 16.0247 34.9324 12.4015 37.9779C8.77829 41.0234 5.81482 44.7764 3.69251 49.007C1.57019 53.2377 0.333704 57.857 0.0587416 62.5822C-0.216221 67.3073 0.47613 72.0389 2.0934 76.4872C3.71068 80.9354 6.21884 85.0068 9.46434 88.452C12.7098 91.8972 16.6244 94.6438 20.9682 96.5235C25.3121 98.4032 29.994 99.3766 34.7271 99.3839H129.133C136.697 99.3926 143.981 96.5261 149.51 91.3651C155.039 86.2041 158.4 79.1345 158.912 71.5883C159.423 64.0421 157.048 56.5835 152.266 50.7233C147.484 44.8632 140.654 41.0397 133.158 40.0272Z" fill="white"/>
</svg>
