<svg width="45" height="45" viewBox="0 0 45 45" fill="none" xmlns="http://www.w3.org/2000/svg">
<path d="M22.5 28.125C23.9918 28.125 25.4226 27.5324 26.4775 26.4775C27.5324 25.4226 28.125 23.9918 28.125 22.5C28.125 21.0082 27.5324 19.5774 26.4775 18.5225C25.4226 17.4676 23.9918 16.875 22.5 16.875C21.0082 16.875 19.5774 17.4676 18.5225 18.5225C17.4676 19.5774 16.875 21.0082 16.875 22.5C16.875 23.9918 17.4676 25.4226 18.5225 26.4775C19.5774 27.5324 21.0082 28.125 22.5 28.125V28.125ZM22.5 31.875C20.0136 31.875 17.629 30.8873 15.8709 29.1291C14.1127 27.371 13.125 24.9864 13.125 22.5C13.125 20.0136 14.1127 17.629 15.8709 15.8709C17.629 14.1127 20.0136 13.125 22.5 13.125C24.9864 13.125 27.371 14.1127 29.1291 15.8709C30.8873 17.629 31.875 20.0136 31.875 22.5C31.875 24.9864 30.8873 27.371 29.1291 29.1291C27.371 30.8873 24.9864 31.875 22.5 31.875V31.875ZM22.5 3.75C22.9973 3.75 23.4742 3.94754 23.8258 4.29917C24.1775 4.65081 24.375 5.12772 24.375 5.625V9.375C24.375 9.87228 24.1775 10.3492 23.8258 10.7008C23.4742 11.0525 22.9973 11.25 22.5 11.25C22.0027 11.25 21.5258 11.0525 21.1742 10.7008C20.8225 10.3492 20.625 9.87228 20.625 9.375V5.625C20.625 5.12772 20.8225 4.65081 21.1742 4.29917C21.5258 3.94754 22.0027 3.75 22.5 3.75V3.75ZM22.5 33.75C22.9973 33.75 23.4742 33.9475 23.8258 34.2992C24.1775 34.6508 24.375 35.1277 24.375 35.625V39.375C24.375 39.8723 24.1775 40.3492 23.8258 40.7008C23.4742 41.0525 22.9973 41.25 22.5 41.25C22.0027 41.25 21.5258 41.0525 21.1742 40.7008C20.8225 40.3492 20.625 39.8723 20.625 39.375V35.625C20.625 35.1277 20.8225 34.6508 21.1742 34.2992C21.5258 33.9475 22.0027 33.75 22.5 33.75V33.75ZM5.625 20.625H9.375C9.87228 20.625 10.3492 20.8225 10.7008 21.1742C11.0525 21.5258 11.25 22.0027 11.25 22.5C11.25 22.9973 11.0525 23.4742 10.7008 23.8258C10.3492 24.1775 9.87228 24.375 9.375 24.375H5.625C5.12772 24.375 4.65081 24.1775 4.29917 23.8258C3.94754 23.4742 3.75 22.9973 3.75 22.5C3.75 22.0027 3.94754 21.5258 4.29917 21.1742C4.65081 20.8225 5.12772 20.625 5.625 20.625V20.625ZM35.625 20.625H39.375C39.8723 20.625 40.3492 20.8225 40.7008 21.1742C41.0525 21.5258 41.25 22.0027 41.25 22.5C41.25 22.9973 41.0525 23.4742 40.7008 23.8258C40.3492 24.1775 39.8723 24.375 39.375 24.375H35.625C35.1277 24.375 34.6508 24.1775 34.2992 23.8258C33.9475 23.4742 33.75 22.9973 33.75 22.5C33.75 22.0027 33.9475 21.5258 34.2992 21.1742C34.6508 20.8225 35.1277 20.625 35.625 20.625ZM35.7581 9.24188C36.1096 9.59349 36.3071 10.0703 36.3071 10.5675C36.3071 11.0647 36.1096 11.5415 35.7581 11.8931L33.1069 14.5444C32.9339 14.7235 32.727 14.8663 32.4983 14.9646C32.2695 15.0628 32.0235 15.1146 31.7745 15.1167C31.5255 15.1189 31.2786 15.0714 31.0482 14.9772C30.8178 14.8829 30.6084 14.7437 30.4324 14.5676C30.2563 14.3916 30.1171 14.1822 30.0228 13.9518C29.9286 13.7214 29.8811 13.4745 29.8833 13.2255C29.8854 12.9765 29.9372 12.7305 30.0354 12.5017C30.1337 12.273 30.2765 12.0661 30.4556 11.8931L33.1069 9.24188C33.4585 8.89037 33.9353 8.6929 34.4325 8.6929C34.9297 8.6929 35.4065 8.89037 35.7581 9.24188V9.24188ZM14.5444 30.4556C14.8959 30.8072 15.0933 31.2841 15.0933 31.7813C15.0933 32.2784 14.8959 32.7553 14.5444 33.1069L11.8931 35.7563C11.7202 35.9353 11.5133 36.0782 11.2845 36.1764C11.0558 36.2747 10.8097 36.3264 10.5608 36.3286C10.3118 36.3308 10.0649 36.2833 9.83446 36.189C9.60403 36.0948 9.39468 35.9555 9.21863 35.7795C9.04259 35.6034 8.90336 35.3941 8.80908 35.1637C8.71481 34.9332 8.66737 34.6863 8.66953 34.4374C8.67169 34.1884 8.72342 33.9424 8.82169 33.7136C8.91995 33.4849 9.06279 33.278 9.24187 33.105L11.8931 30.4538C12.2447 30.1022 12.7216 29.9048 13.2188 29.9048C13.7159 29.9048 14.1928 30.1022 14.5444 30.4538V30.4556ZM11.8931 9.24188L14.5444 11.8931C14.8859 12.2468 15.0749 12.7204 15.0706 13.212C15.0664 13.7036 14.8692 14.1739 14.5215 14.5215C14.1739 14.8692 13.7036 15.0664 13.212 15.0706C12.7204 15.0749 12.2468 14.8859 11.8931 14.5444L9.24375 11.8931C8.91609 11.5371 8.73873 11.0682 8.74875 10.5845C8.75878 10.1008 8.9554 9.63965 9.29753 9.29753C9.63965 8.9554 10.1008 8.75878 10.5845 8.74875C11.0682 8.73873 11.5371 8.91609 11.8931 9.24375V9.24188ZM33.1069 30.4556L35.7581 33.1069C36.0997 33.4605 36.2887 33.9341 36.2844 34.4258C36.2801 34.9174 36.0829 35.3876 35.7353 35.7353C35.3876 36.0829 34.9174 36.2801 34.4258 36.2844C33.9341 36.2887 33.4605 36.0997 33.1069 35.7581L30.4556 33.1069C30.2765 32.9339 30.1337 32.727 30.0354 32.4983C29.9372 32.2695 29.8854 32.0235 29.8833 31.7745C29.8811 31.5255 29.9286 31.2786 30.0228 31.0482C30.1171 30.8178 30.2563 30.6084 30.4324 30.4324C30.6084 30.2563 30.8178 30.1171 31.0482 30.0228C31.2786 29.9286 31.5255 29.8811 31.7745 29.8833C32.0235 29.8854 32.2695 29.9372 32.4983 30.0354C32.727 30.1337 32.9339 30.2765 33.1069 30.4556Z" fill="white"/>
</svg>
