<svg width="26" height="26" viewBox="0 0 26 26" fill="none" xmlns="http://www.w3.org/2000/svg">
<path d="M8.125 5.6875C8.125 4.61006 8.55301 3.57675 9.31488 2.81488C10.0767 2.05301 11.1101 1.625 12.1875 1.625C13.2649 1.625 14.2983 2.05301 15.0601 2.81488C15.822 3.57675 16.25 4.61006 16.25 5.6875V14.5437C17.0338 15.3437 17.564 16.3573 17.774 17.4573C17.9841 18.5574 17.8647 19.695 17.4309 20.7275C16.997 21.76 16.268 22.6414 15.3352 23.2612C14.4025 23.881 13.3074 24.2117 12.1875 24.2117C11.0676 24.2117 9.97255 23.881 9.03977 23.2612C8.10699 22.6414 7.37797 21.76 6.94411 20.7275C6.51026 19.695 6.39088 18.5574 6.60096 17.4573C6.81103 16.3573 7.34121 15.3437 8.125 14.5437V5.6875ZM12.1875 3.25C11.541 3.25 10.921 3.50681 10.4639 3.96393C10.0068 4.42105 9.75 5.04103 9.75 5.6875V15.2539L9.48025 15.4976C8.86693 16.0461 8.43461 16.7679 8.24049 17.5674C8.04638 18.367 8.09962 19.2067 8.39317 19.9753C8.68673 20.7439 9.20676 21.4053 9.88444 21.8719C10.5621 22.3385 11.3655 22.5884 12.1883 22.5884C13.0111 22.5884 13.8145 22.3385 14.4922 21.8719C15.1699 21.4053 15.6899 20.7439 15.9835 19.9753C16.277 19.2067 16.3303 18.367 16.1361 17.5674C15.942 16.7679 15.5097 16.0461 14.8964 15.4976L14.625 15.2522V5.6875C14.625 5.04103 14.3682 4.42105 13.9111 3.96393C13.454 3.50681 12.834 3.25 12.1875 3.25V3.25ZM13 9.75C13 9.53451 12.9144 9.32785 12.762 9.17548C12.6097 9.0231 12.403 8.9375 12.1875 8.9375C11.972 8.9375 11.7654 9.0231 11.613 9.17548C11.4606 9.32785 11.375 9.53451 11.375 9.75V16.3881C10.8329 16.5798 10.376 16.9569 10.0851 17.4529C9.79411 17.9488 9.68787 18.5317 9.78511 19.0984C9.88234 19.6651 10.1768 20.1792 10.6164 20.5498C11.056 20.9205 11.6125 21.1237 12.1875 21.1237C12.7625 21.1237 13.319 20.9205 13.7586 20.5498C14.1982 20.1792 14.4927 19.6651 14.5899 19.0984C14.6871 18.5317 14.5809 17.9488 14.29 17.4529C13.999 16.9569 13.5421 16.5798 13 16.3881V9.75Z" fill="#FEC01D"/>
</svg>
