<svg width="45" height="45" viewBox="0 0 45 45" fill="none" xmlns="http://www.w3.org/2000/svg">
<path d="M14.0625 9.84375C14.0625 7.97895 14.8033 6.19052 16.1219 4.87191C17.4405 3.55329 19.229 2.8125 21.0938 2.8125C22.9586 2.8125 24.747 3.55329 26.0656 4.87191C27.3842 6.19052 28.125 7.97895 28.125 9.84375V25.1719C29.4816 26.5564 30.3992 28.3106 30.7628 30.2146C31.1264 32.1185 30.9198 34.0875 30.1689 35.8745C29.418 37.6615 28.1562 39.187 26.5418 40.2598C24.9273 41.3326 23.0321 41.9048 21.0938 41.9048C19.1554 41.9048 17.2602 41.3326 15.6458 40.2598C14.0313 39.187 12.7696 37.6615 12.0187 35.8745C11.2678 34.0875 11.0611 32.1185 11.4247 30.2146C11.7883 28.3106 12.7059 26.5564 14.0625 25.1719V9.84375ZM21.0938 5.625C19.9749 5.625 18.9018 6.06947 18.1106 6.86064C17.3195 7.65181 16.875 8.72487 16.875 9.84375V26.4009L16.4081 26.8228C15.3466 27.7721 14.5984 29.0213 14.2624 30.4052C13.9264 31.789 14.0186 33.2423 14.5266 34.5726C15.0347 35.903 15.9348 37.0477 17.1077 37.8553C18.2806 38.6629 19.6711 39.0953 21.0952 39.0953C22.5192 39.0953 23.9097 38.6629 25.0826 37.8553C26.2555 37.0477 27.1556 35.903 27.6637 34.5726C28.1717 33.2423 28.2639 31.789 27.9279 30.4052C27.592 29.0213 26.8437 27.7721 25.7822 26.8228L25.3125 26.3981V9.84375C25.3125 8.72487 24.868 7.65181 24.0769 6.86064C23.2857 6.06947 22.2126 5.625 21.0938 5.625V5.625ZM22.5 16.875C22.5 16.502 22.3518 16.1444 22.0881 15.8806C21.8244 15.6169 21.4667 15.4688 21.0938 15.4688C20.7208 15.4688 20.3631 15.6169 20.0994 15.8806C19.8357 16.1444 19.6875 16.502 19.6875 16.875V28.3641C18.7492 28.6958 17.9584 29.3485 17.4549 30.2069C16.9514 31.0653 16.7675 32.0741 16.9358 33.0549C17.104 34.0358 17.6137 34.9256 18.3745 35.567C19.1354 36.2085 20.0986 36.5603 21.0938 36.5603C22.0889 36.5603 23.0521 36.2085 23.813 35.567C24.5738 34.9256 25.0835 34.0358 25.2517 33.0549C25.42 32.0741 25.2362 31.0653 24.7326 30.2069C24.2291 29.3485 23.4383 28.6958 22.5 28.3641V16.875Z" fill="white"/>
</svg>
