<svg width="40" height="40" viewBox="0 0 40 40" fill="none" xmlns="http://www.w3.org/2000/svg">
<path d="M3.75 16.25C3.41848 16.25 3.10054 16.1183 2.86612 15.8839C2.6317 15.6495 2.5 15.3315 2.5 15C2.5 14.6685 2.6317 14.3505 2.86612 14.1161C3.10054 13.8817 3.41848 13.75 3.75 13.75H18.75C19.2067 13.7498 19.6547 13.6245 20.0452 13.3876C20.4358 13.1508 20.754 12.8115 20.9653 12.4066C21.1766 12.0016 21.2729 11.5466 21.2438 11.0908C21.2147 10.6349 21.0613 10.1958 20.8002 9.82103C20.5392 9.44626 20.1804 9.15016 19.7629 8.9649C19.3455 8.77963 18.8852 8.71227 18.4322 8.77014C17.9791 8.828 17.5505 9.00888 17.193 9.29313C16.8355 9.57738 16.5627 9.95413 16.4042 10.3825C16.3473 10.5364 16.2605 10.6777 16.149 10.7981C16.0374 10.9186 15.9033 11.0158 15.7541 11.0844C15.605 11.153 15.4438 11.1915 15.2798 11.1978C15.1157 11.2041 14.9521 11.178 14.7981 11.1211C14.6442 11.0641 14.5029 10.9774 14.3825 10.8659C14.2621 10.7543 14.1648 10.6201 14.0962 10.471C14.0276 10.3219 13.9891 10.1607 13.9828 9.99665C13.9765 9.83261 14.0026 9.66895 14.0595 9.51499C14.3765 8.65805 14.9221 7.90432 15.6372 7.33565C16.3524 6.76699 17.2096 6.40512 18.1159 6.28936C19.0223 6.17359 19.943 6.30835 20.7781 6.679C21.6132 7.04965 22.3308 7.64202 22.8529 8.39178C23.3751 9.14154 23.6819 10.02 23.7399 10.9319C23.7979 11.8437 23.6051 12.754 23.1822 13.5639C22.7593 14.3738 22.1226 15.0524 21.3412 15.5259C20.5599 15.9995 19.6637 16.2499 18.75 16.25H3.75ZM23.75 23.75H6.25C5.91848 23.75 5.60054 23.8817 5.36612 24.1161C5.1317 24.3505 5 24.6685 5 25C5 25.3315 5.1317 25.6495 5.36612 25.8839C5.60054 26.1183 5.91848 26.25 6.25 26.25H23.75C24.2067 26.2502 24.6547 26.3755 25.0452 26.6124C25.4358 26.8492 25.754 27.1885 25.9653 27.5934C26.1766 27.9983 26.2729 28.4534 26.2438 28.9092C26.2147 29.365 26.0613 29.8042 25.8002 30.179C25.5392 30.5537 25.1804 30.8498 24.7629 31.0351C24.3455 31.2204 23.8852 31.2877 23.4322 31.2298C22.9791 31.172 22.5505 30.9911 22.193 30.7069C21.8355 30.4226 21.5627 30.0459 21.4042 29.6175C21.2892 29.3066 21.0553 29.0541 20.7541 28.9156C20.605 28.847 20.4438 28.8084 20.2798 28.8021C20.1157 28.7959 19.9521 28.8219 19.7981 28.8789C19.6442 28.9359 19.5029 29.0226 19.3825 29.1341C19.2621 29.2457 19.1648 29.3798 19.0962 29.529C18.9577 29.8302 18.9445 30.1741 19.0595 30.485C19.3765 31.3419 19.9221 32.0957 20.6372 32.6643C21.3524 33.233 22.2096 33.5949 23.1159 33.7106C24.0223 33.8264 24.943 33.6916 25.7781 33.321C26.6132 32.9503 27.3308 32.358 27.8529 31.6082C28.3751 30.8584 28.6819 29.98 28.7399 29.0681C28.7979 28.1563 28.6051 27.246 28.1822 26.4361C27.7593 25.6262 27.1226 24.9476 26.3412 24.474C25.5599 24.0005 24.6637 23.7501 23.75 23.75V23.75ZM32.5 11.25C31.4789 11.2527 30.4829 11.5666 29.6449 12.15C28.8068 12.7334 28.1666 13.5584 27.8095 14.515C27.7526 14.6689 27.7265 14.8326 27.7328 14.9966C27.7391 15.1607 27.7776 15.3219 27.8462 15.471C27.9148 15.6201 28.0121 15.7543 28.1325 15.8659C28.2529 15.9774 28.3942 16.0641 28.5481 16.1211C28.7021 16.178 28.8657 16.2041 29.0298 16.1978C29.1938 16.1915 29.355 16.153 29.5041 16.0844C29.6533 16.0158 29.7875 15.9186 29.899 15.7981C30.0105 15.6777 30.0973 15.5364 30.1542 15.3825C30.3126 14.954 30.5855 14.577 30.943 14.2926C31.3006 14.0082 31.7292 13.8272 32.1824 13.7692C32.6356 13.7113 33.096 13.7786 33.5137 13.9639C33.9313 14.1492 34.2901 14.4454 34.5513 14.8203C34.8124 15.1952 34.9659 15.6345 34.995 16.0904C35.024 16.5464 34.9276 17.0016 34.7162 17.4066C34.5048 17.8116 34.1864 18.151 33.7957 18.3878C33.405 18.6247 32.9569 18.7499 32.5 18.75H5C4.66848 18.75 4.35054 18.8817 4.11612 19.1161C3.8817 19.3505 3.75 19.6685 3.75 20C3.75 20.3315 3.8817 20.6495 4.11612 20.8839C4.35054 21.1183 4.66848 21.25 5 21.25H32.5C33.8261 21.25 35.0979 20.7232 36.0355 19.7855C36.9732 18.8478 37.5 17.5761 37.5 16.25C37.5 14.9239 36.9732 13.6521 36.0355 12.7145C35.0979 11.7768 33.8261 11.25 32.5 11.25V11.25Z" fill="white"/>
</svg>
