<svg width="24" height="24" viewBox="0 0 24 24" fill="none" xmlns="http://www.w3.org/2000/svg">
<path d="M2.25 9.75C2.05109 9.75 1.86032 9.67098 1.71967 9.53033C1.57902 9.38967 1.5 9.19891 1.5 9C1.5 8.80108 1.57902 8.61032 1.71967 8.46967C1.86032 8.32901 2.05109 8.25 2.25 8.25H11.25C11.524 8.24987 11.7928 8.17468 12.0271 8.03258C12.2615 7.89047 12.4524 7.68689 12.5792 7.44394C12.7059 7.20098 12.7637 6.92794 12.7463 6.65445C12.7288 6.38096 12.6368 6.11748 12.4801 5.89262C12.3235 5.66775 12.1083 5.4901 11.8578 5.37894C11.6073 5.26778 11.3311 5.22736 11.0593 5.26208C10.7875 5.2968 10.5303 5.40533 10.3158 5.57588C10.1013 5.74642 9.93762 5.97248 9.84253 6.2295C9.80835 6.32187 9.75632 6.4066 9.68939 6.47887C9.62247 6.55113 9.54197 6.6095 9.45248 6.65065C9.363 6.6918 9.26629 6.71493 9.16787 6.7187C9.06945 6.72248 8.97125 6.70683 8.87888 6.67265C8.7865 6.63848 8.70177 6.58644 8.6295 6.51952C8.55724 6.45259 8.49887 6.37209 8.45772 6.2826C8.41657 6.19312 8.39344 6.09641 8.38967 5.99799C8.38589 5.89957 8.40154 5.80137 8.43572 5.709C8.62588 5.19483 8.95327 4.74259 9.38235 4.40139C9.81143 4.06019 10.3258 3.84307 10.8696 3.77361C11.4134 3.70415 11.9658 3.78501 12.4668 4.0074C12.9679 4.22979 13.3985 4.58521 13.7118 5.03507C14.0251 5.48492 14.2091 6.01202 14.2439 6.55912C14.2788 7.10621 14.163 7.65239 13.9093 8.13834C13.6556 8.62429 13.2736 9.03144 12.8047 9.31557C12.3359 9.5997 11.7982 9.74994 11.25 9.75H2.25ZM14.25 14.25H3.75C3.55109 14.25 3.36032 14.329 3.21967 14.4697C3.07902 14.6103 3 14.8011 3 15C3 15.1989 3.07902 15.3897 3.21967 15.5303C3.36032 15.671 3.55109 15.75 3.75 15.75H14.25C14.524 15.7501 14.7928 15.8253 15.0271 15.9674C15.2615 16.1095 15.4524 16.3131 15.5792 16.5561C15.7059 16.799 15.7637 17.0721 15.7463 17.3455C15.7288 17.619 15.6368 17.8825 15.4801 18.1074C15.3235 18.3322 15.1083 18.5099 14.8578 18.6211C14.6073 18.7322 14.3311 18.7726 14.0593 18.7379C13.7875 18.7032 13.5303 18.5947 13.3158 18.4241C13.1013 18.2536 12.9376 18.0275 12.8425 17.7705C12.7735 17.5839 12.6332 17.4324 12.4525 17.3493C12.363 17.3082 12.2663 17.2851 12.1679 17.2813C12.0694 17.2775 11.9712 17.2932 11.8789 17.3273C11.7865 17.3615 11.7018 17.4136 11.6295 17.4805C11.5572 17.5474 11.4989 17.6279 11.4577 17.7174C11.3746 17.8981 11.3667 18.1044 11.4357 18.291C11.6259 18.8052 11.9533 19.2574 12.3823 19.5986C12.8114 19.9398 13.3258 20.1569 13.8696 20.2264C14.4134 20.2958 14.9658 20.215 15.4668 19.9926C15.9679 19.7702 16.3985 19.4148 16.7118 18.9649C17.0251 18.5151 17.2091 17.988 17.2439 17.4409C17.2788 16.8938 17.163 16.3476 16.9093 15.8616C16.6556 15.3757 16.2736 14.9686 15.8047 14.6844C15.3359 14.4003 14.7982 14.25 14.25 14.25V14.25ZM19.5 6.75C18.8873 6.75161 18.2898 6.93998 17.7869 7.29C17.2841 7.64001 16.9 8.13502 16.6857 8.709C16.6515 8.80137 16.6359 8.89957 16.6397 8.99799C16.6434 9.09641 16.6666 9.19312 16.7077 9.2826C16.7489 9.37209 16.8072 9.45259 16.8795 9.51952C16.9518 9.58644 17.0365 9.63848 17.1289 9.67265C17.2212 9.70683 17.3194 9.72248 17.4179 9.7187C17.5163 9.71493 17.613 9.6918 17.7025 9.65065C17.792 9.6095 17.8725 9.55113 17.9394 9.47887C18.0063 9.4066 18.0584 9.32187 18.0925 9.2295C18.1876 8.97237 18.3513 8.74621 18.5658 8.57556C18.7803 8.40492 19.0375 8.29631 19.3095 8.26155C19.5814 8.22678 19.8576 8.26718 20.1082 8.37836C20.3588 8.48953 20.5741 8.66724 20.7308 8.89218C20.8875 9.11711 20.9795 9.38068 20.997 9.65425C21.0144 9.92783 20.9566 10.2009 20.8297 10.444C20.7029 10.687 20.5119 10.8906 20.2774 11.0327C20.043 11.1748 19.7741 11.2499 19.5 11.25H3C2.80109 11.25 2.61032 11.329 2.46967 11.4697C2.32902 11.6103 2.25 11.8011 2.25 12C2.25 12.1989 2.32902 12.3897 2.46967 12.5303C2.61032 12.671 2.80109 12.75 3 12.75H19.5C20.2956 12.75 21.0587 12.4339 21.6213 11.8713C22.1839 11.3087 22.5 10.5456 22.5 9.75C22.5 8.95435 22.1839 8.19128 21.6213 7.62868C21.0587 7.06607 20.2956 6.75 19.5 6.75V6.75Z" fill="#FEC01D"/>
</svg>
